<svg id="Layer_1" data-name="Layer 1" xmlns="http://www.w3.org/2000/svg" viewBox="0 0 1920 1080"><defs><style>.cls-1{fill:#2335d8;}.cls-2{fill:#214adb;}.cls-3{fill:#1f5add;}.cls-4{fill:#1e64e0;}.cls-5{fill:#1b76e2;}.cls-6{fill:#1a89e5;}.cls-7{fill:#1899e8;}.cls-8{fill:#15ade9;}</style></defs><title>background2</title><path class="cls-1" d="M213.11,894.46v0c0,2.47,0,4.94,0,7.41,0,1.27,0,2.54,0,3.8q0,3.7-.06,7.39,0,3.09-.07,6.17t-.1,6.16q-.09,5.58-.22,11.11c-.07,3.09-.14,6.18-.23,9.26-.1,3.4-.2,6.78-.31,10.16q-.15,4.14-.3,8.25c-.12,3.06-.24,6.1-.37,9.14l0,.73-.39,8.38q-.44,9.07-1,18.08-.21,3.74-.46,7.45c-.1,1.59-.2,3.18-.31,4.76-.09,1.42-.18,2.84-.28,4.25q-.19,2.88-.41,5.75-.44,6.12-.93,12.18l-.12,1.6c-.23,2.74-.45,5.48-.69,8.22,0,.2,0,.4-.06.61q-.36,4.26-.75,8.5-.3,3.29-.61,6.57-.93,9.84-2,19.57H0v-4.66l1.8-1.28,6-4.28q6.17-4.42,12.33-9l3.51-2.59q5.85-4.31,11.7-8.73,3.45-2.58,6.88-5.21,6.88-5.24,13.75-10.6c2.09-1.63,4.19-3.27,6.28-4.92q9.21-7.26,18.39-14.72l4.51-3.68q5.09-4.15,10.18-8.39,2.5-2.09,5-4.18c1.67-1.38,3.33-2.79,5-4.2q5.23-4.43,10.48-8.93c1.5-1.29,3-2.58,4.51-3.89l5-4.33q2.49-2.16,5-4.37t5-4.4c1.66-1.47,3.33-2.95,5-4.44q5-4.44,10-9l4.71-4.28c.18-.15.35-.31.52-.48l4.73-4.34q2.67-2.45,5.32-4.91c.38-.34.75-.69,1.12-1q2.85-2.64,5.69-5.31l5.11-4.81q5.1-4.82,10.2-9.71t10.19-9.86c.82-.79,1.63-1.58,2.44-2.39,1.77-1.73,3.54-3.46,5.31-5.22q3.76-3.69,7.52-7.44l0,0Z"/><path class="cls-2" d="M213.11,894.46h0l0,0q-3.75,3.75-7.52,7.44c-1.77,1.76-3.54,3.49-5.31,5.22-.81.81-1.62,1.6-2.44,2.39q-5.09,5-10.19,9.86t-10.2,9.71l-5.11,4.81q-6.06,5.69-12.13,11.26l-4.73,4.34c-.17.17-.34.33-.52.48l-4.71,4.28q-5,4.53-10,9c-1.66,1.49-3.33,3-5,4.44s-3.32,2.94-5,4.4-3.33,2.93-5,4.37l-5,4.33c-1.5,1.31-3,2.6-4.51,3.89q-5.24,4.51-10.48,8.93c-1.67,1.41-3.33,2.82-5,4.2s-3.33,2.79-5,4.18q-5.09,4.24-10.18,8.39l-4.51,3.68q-9.18,7.47-18.39,14.72L56,1033.69q-6.87,5.36-13.75,10.6-3.44,2.63-6.88,5.21-5.85,4.41-11.7,8.73l-3.51,2.59q-6.16,4.53-12.33,9c-2,1.44-4,2.86-6,4.28L0,1075.34V881.62l.49.06,8,1,.72.08c2.61.31,5.22.62,7.84.91l3.1.35q6.59.74,13.19,1.42,5.67.6,11.39,1.13c2.06.21,4.12.4,6.18.59,1,.1,1.9.18,2.86.26,2.67.25,5.34.48,8,.71,3,.26,6,.51,9,.75q8.08.64,16.24,1.23l2.69.19q8.67.59,17.41,1.11c5.21.31,10.44.58,15.69.84q4.24.21,8.52.39c4.25.2,8.5.39,12.78.55l3.4.13,1.64.06,1.76.06,5.26.17,2.42.08,3,.08,5.3.14,6.93.17h.46l5.38.11,4,.07,5.91.08c2.36,0,4.73.06,7.11.07l2.06,0q7.16.06,14.35.06h0Z"/><path class="cls-3" d="M213.11,894.46h0q-7.2,0-14.35-.06l-2.06,0c-2.38,0-4.75,0-7.11-.07l-5.91-.08-4-.07-5.38-.11h-.46l-6.93-.17-5.3-.14-5.43-.16-5.26-.17q-6.13-.21-12.23-.47l-1,0h0l-1.42-.06-1.07-.05c-.65,0-1.29,0-1.94-.09l-1.93-.09-3.57-.16-4.95-.23c-5.25-.26-10.48-.53-15.69-.84q-8.75-.51-17.41-1.11L87,890.08q-8.16-.58-16.24-1.23c-3-.24-6-.49-9-.75-2.68-.23-5.35-.46-8-.71-1-.08-1.91-.16-2.86-.26-2.06-.19-4.12-.38-6.18-.59Q39,886,33.3,885.41q-6.61-.67-13.19-1.42l-3.1-.35c-2.62-.29-5.23-.6-7.84-.91l-.72-.08-8-1L0,881.62V634.89q2.3,3.5,4.63,7,7,10.51,14.22,21c1.14,1.66,2.3,3.33,3.46,5q5.57,8,11.29,16,2.49,3.5,5,7,3.16,4.38,6.38,8.75c1.21,1.65,2.42,3.3,3.65,5l.53.72q2,2.73,4.09,5.48,3,4,6.08,8.07,2.64,3.5,5.33,7t5.39,7c1.73,2.24,3.49,4.48,5.25,6.73l.2.25q2.53,3.24,5.11,6.48,11.28,14.2,23.06,28.39,2.3,2.78,4.64,5.55,12.25,14.63,25.08,29.23,3,3.47,6.13,6.94,6.15,6.94,12.45,13.88c1.74,1.93,3.5,3.85,5.26,5.77l1.4,1.53q3,3.29,6.05,6.56,3.19,3.46,6.45,6.93t6.52,6.92l2.95,3.11,4,4.17.79.83,5.55,5.77.83.86.45.46.5.52.56.57,4.7,4.83Q205.47,886.81,213.11,894.46Z"/><path class="cls-4" d="M511.43,0C339.18,208.06,217,491.14,213.21,875.87q-.11,9.25-.1,18.59l-3.81-3.82q-5.72-5.75-11.32-11.48l-.58-.59-4.12-4.24-.27-.27-.29-.3-.5-.52-.45-.46q-3.21-3.31-6.38-6.63l-.79-.83-4-4.17L177.68,858q-1.92-2-3.82-4.06l-1.35-1.43-1.35-1.43c-.37-.4-.74-.79-1.1-1.19q-2.69-2.86-5.35-5.74-3-3.27-6.05-6.56l-1.4-1.53c-1.76-1.92-3.51-3.85-5.26-5.77q-6.28-6.93-12.45-13.88-3.08-3.47-6.13-6.94-12.82-14.6-25.08-29.23c-1.56-1.85-3.1-3.7-4.64-5.55q-11.79-14.19-23.06-28.39c-1.71-2.16-3.42-4.32-5.11-6.48l-.2-.25c-1.76-2.24-3.51-4.49-5.25-6.73s-3.61-4.66-5.39-7-3.57-4.66-5.33-7q-3.06-4-6.08-8.07-2.06-2.73-4.09-5.48l-.53-.72-3.65-5q-3.21-4.36-6.38-8.75-2.54-3.49-5-7-5.73-8-11.29-16l-3.46-5q-7.25-10.5-14.22-21c-1.56-2.34-3.1-4.67-4.63-7V0Z"/><path class="cls-5" d="M1920,0V660.48c-406.49-205.65-1088.94-385.54-1706.88,234h0q0-9.33.1-18.59C217,491.14,339.18,208.06,511.43,0Z"/><path class="cls-6" d="M1920,660.48V1080H945.87q-6.71-4-13.49-7.87l-3-1.75q-9.81-5.61-19.8-11.07l-3.74-2-6.6-3.56q-6.12-3.26-12.29-6.48-5.76-3-11.59-6l-4.83-2.44-4.85-2.42q-4.86-2.42-9.76-4.79-2.42-1.19-4.85-2.34l-3-1.46-4.64-2.2q-7.43-3.51-14.94-6.93l-4.85-2.2q-6.49-2.93-13-5.79l-4.6-2q-7.64-3.32-15.37-6.53l-5.17-2.14-5.18-2.12q-10.39-4.23-20.94-8.3c-1.76-.68-3.51-1.36-5.28-2q-12-4.59-24.27-9-4.53-1.64-9.11-3.23-2.67-.95-5.35-1.86c-1.42-.5-2.85-1-4.28-1.47l-4.75-1.62c-2.74-.93-5.5-1.84-8.26-2.75l-4.3-1.41q-13.36-4.37-27-8.49L661,956.1q-19.62-5.86-39.76-11.2c-1.9-.5-3.8-1-5.71-1.5q-4.23-1.11-8.47-2.18l-3.51-.89q-5.85-1.47-11.75-2.9l-5.13-1.23-4.13-1q-6.69-1.58-13.43-3.09l-4.22-.94Q557.5,929.54,550,928q-3-.65-6-1.26c-2.32-.48-4.63-1-7-1.41q-2.53-.52-5.1-1c-2.08-.42-4.16-.82-6.24-1.22s-4.09-.79-6.14-1.17l-6.16-1.15-6.19-1.12c-2.06-.38-4.13-.74-6.2-1.1s-4.15-.73-6.23-1.08q-6.6-1.14-13.24-2.21l-4.83-.77-8.24-1.28-4.64-.7-4.16-.62-5.82-.85q-8-1.14-16.09-2.21l-5.66-.74-3.87-.49-5.06-.64-4.84-.58c-2.16-.26-4.32-.52-6.49-.76-1.6-.19-3.21-.38-4.82-.55-2.75-.31-5.51-.62-8.27-.91l-5.55-.59-7.63-.77-5.31-.52q-7.62-.74-15.3-1.4-5.43-.47-10.89-.9l-3.84-.3q-19.2-1.49-38.78-2.56l-6.87-.36-6.9-.33c-2.3-.11-4.61-.22-6.92-.31q-10.39-.45-20.89-.77l-7-.2q-24.55-.68-49.69-.67h0C831.06,274.94,1513.51,454.83,1920,660.48Z"/><path class="cls-7" d="M945.87,1080H374.26q-2.16-2.91-4.37-5.83c-1.46-2-2.93-3.89-4.41-5.84s-3-3.88-4.45-5.83-3-3.88-4.49-5.83-3-3.88-4.53-5.82l-4.58-5.83q-2.3-2.91-4.62-5.82l-4.66-5.82c-1.29-1.61-2.59-3.21-3.89-4.82q-2.94-3.63-5.92-7.26l-4.43-5.37-4.27-5.13c-1.79-2.16-3.61-4.33-5.44-6.49-1.63-1.94-3.27-3.87-4.92-5.81s-3.18-3.72-4.77-5.58c-1.78-2.08-3.58-4.16-5.38-6.23-1.51-1.73-3-3.47-4.53-5.2-.28-.33-.56-.65-.85-1l-4.47-5.08q-7.08-8-14.35-16.06l-3.71-4.08q-3.42-3.75-6.88-7.51c-1.35-1.46-2.7-2.93-4.07-4.39Q254,936.68,247.69,930c-1.86-2-3.75-4-5.64-5.93q-14.16-14.81-28.91-29.56l0,0h0q25.13,0,49.69.67l7,.2q10.49.33,20.89.77l6.92.31,6.9.33,6.87.36q19.57,1.06,38.78,2.56l3.84.3q5.46.43,10.89.9,7.68.67,15.3,1.4l5.31.52,7.63.77,5.55.59c2.76.29,5.52.6,8.27.91l4.82.55,6.49.76,4.84.58,5.06.64,3.87.49,5.66.74q8.07,1.07,16.09,2.21l5.82.85,4.16.62,4.64.7,8.24,1.28,4.83.77q6.64,1.08,13.24,2.21,3.12.52,6.23,1.08l6.2,1.1,6.19,1.12,6.16,1.15c2.05.38,4.09.77,6.14,1.17s4.16.8,6.24,1.22q2.57.5,5.1,1c2.32.46,4.63.93,7,1.41,2,.41,4,.83,6,1.26q7.46,1.56,14.86,3.21l4.22.94q6.74,1.51,13.43,3.09l4.13,1,5.13,1.23q5.9,1.43,11.75,2.9l3.51.89q4.25,1.06,8.47,2.18c1.91.49,3.81,1,5.71,1.5q20.14,5.34,39.76,11.2l5.63,1.69q13.64,4.13,27,8.49l4.3,1.41c2.76.91,5.52,1.82,8.26,2.75l4.75,1.62c1.43.48,2.86,1,4.28,1.47q2.68.91,5.35,1.86,4.57,1.59,9.11,3.23,12.24,4.38,24.27,9l5.28,2q10.54,4.07,20.94,8.3l5.18,2.12,5.17,2.14q7.72,3.21,15.37,6.53l4.6,2q6.56,2.85,13,5.79l4.85,2.2q7.51,3.42,14.94,6.93l4.64,2.2,3,1.46c1.62.77,3.23,1.55,4.85,2.34q4.89,2.37,9.76,4.79l4.85,2.42q2.43,1.22,4.83,2.44,5.82,2.94,11.59,6,6.18,3.21,12.29,6.48l6.6,3.56,3.74,2q10,5.46,19.8,11.07l3,1.75Q939.16,1076,945.87,1080Z"/><path class="cls-8" d="M374.26,1080H203.41q1.4-13,2.6-26.14.39-4.24.75-8.5c0-.21,0-.41.06-.61.24-2.74.46-5.48.69-8.22l.12-1.6q.5-6.06.93-12.18.21-2.87.41-5.75c.1-1.41.19-2.83.28-4.25.11-1.58.21-3.17.31-4.76q.25-3.72.46-7.45.54-9,1-18.08l.39-8.38,0-.73c.13-3,.25-6.08.37-9.14q.15-4.11.3-8.25c.11-3.38.21-6.76.31-10.16,0-1.1.06-2.21.08-3.32q.08-3,.15-5.94.13-5.53.22-11.11.06-3.07.1-6.16t.07-6.17l.06-7.39c0-.63,0-1.26,0-1.89v-1.91c0-2.47,0-4.94,0-7.41v0l0,0q5.75,5.75,11.38,11.5,8.89,9,17.53,18.06,2.83,3,5.64,5.93,6.36,6.71,12.58,13.42,2,2.19,4.07,4.39,3.46,3.75,6.88,7.51l3.71,4.08q7.26,8,14.35,16.06l4.47,5.08c.29.32.57.64.85,1,1.52,1.73,3,3.47,4.53,5.2,1.8,2.07,3.6,4.15,5.38,6.23,1.59,1.86,3.19,3.72,4.77,5.58s3.29,3.87,4.92,5.81c1.83,2.16,3.65,4.33,5.44,6.49l4.27,5.13,4.43,5.37q3,3.63,5.92,7.26c1.3,1.61,2.6,3.21,3.89,4.82l4.66,5.82q2.32,2.91,4.62,5.82l4.58,5.83q2.28,2.91,4.53,5.82c1.51,1.95,3,3.89,4.49,5.83s3,3.89,4.45,5.83,2.95,3.89,4.41,5.84S372.82,1078.06,374.26,1080Z"/><path class="cls-1" d="M213.12,894.49q0,4.68,0,9.33c0,.63,0,1.26,0,1.89q0,3.7-.06,7.39,0,3.09-.07,6.17t-.1,6.16q-.09,5.58-.22,11.11-.07,3-.15,5.94c-.11,4-.22,7.9-.36,11.83q-.23,6.75-.5,13.45-.39,9.4-.88,18.73-.17,3.33-.37,6.64c-.08,1.55-.17,3.09-.27,4.64s-.18,3.19-.28,4.78c-.2,3.3-.42,6.6-.64,9.89s-.47,6.67-.72,10c-.09,1.4-.2,2.79-.32,4.19-.12,1.76-.26,3.51-.41,5.26s-.28,3.58-.43,5.37q-.75,9.06-1.61,18.06c-.16,1.63-.31,3.25-.48,4.88q-.36,3.87-.77,7.71c-.05.54-.11,1.08-.17,1.63q-.54,5.25-1.12,10.47H0v-5.45q3.36-2.35,6.7-4.74c2.24-1.58,4.47-3.18,6.71-4.79l6.7-4.84c2.23-1.63,4.46-3.26,6.69-4.91s4.47-3.29,6.7-5,4.46-3.32,6.69-5q6.7-5.05,13.38-10.2t13.37-10.43q3.34-2.63,6.68-5.3T80.3,1014q3.33-2.68,6.67-5.42t6.68-5.47q3.33-2.75,6.66-5.53h0q3.33-2.77,6.66-5.59,6.66-5.61,13.32-11.35,3.33-2.86,6.66-5.77c2.21-1.92,4.43-3.87,6.65-5.82s4.43-3.91,6.65-5.88,4.43-4,6.64-6q2.91-2.61,5.81-5.25,3.73-3.39,7.47-6.81,6.07-5.58,12.13-11.26,2.56-2.38,5.11-4.81l4.47-4.23q5-4.68,9.87-9.44,1.77-1.7,3.52-3.41,5.85-5.65,11.68-11.43,3.07-3,6.15-6.1h0Z"/><path class="cls-2" d="M213.11,894.49h0q-3.08,3.06-6.15,6.1-5.84,5.77-11.68,11.43-1.75,1.71-3.52,3.41l-4,3.81-.12.12,0,0-.07.07-2.83,2.71-2.2,2.09-.63.61-4.47,4.23-5.11,4.81q-6.06,5.69-12.13,11.26-3.74,3.42-7.47,6.81c-1.94,1.76-3.87,3.51-5.81,5.25l-6.64,6q-3.33,3-6.65,5.88L127,974.89q-3.33,2.9-6.66,5.77Q113.64,986.39,107,992l-6.66,5.59h0l-6.66,5.53q-3.34,2.75-6.68,5.47T80.3,1014q-3.33,2.68-6.68,5.35c-2.22,1.78-4.45,3.54-6.68,5.3q-6.67,5.28-13.37,10.43t-13.38,10.2q-3.34,2.52-6.69,5t-6.7,5c-2.23,1.65-4.46,3.28-6.69,4.91l-6.7,4.84c-2.24,1.61-4.47,3.21-6.71,4.79S2.24,1073,0,1074.55V881.26l6.36.8c2.09.27,4.19.52,6.29.77s4.24.51,6.37.75l6.38.73q6.72.75,13.5,1.45l5.78.58q3.23.33,6.46.63c2,.2,4,.38,6,.56,2.77.26,5.54.5,8.31.74l8.35.7,8.38.65,8.25.61h.16q12.66.88,25.47,1.6,7.57.42,15.22.77c.64,0,1.28.07,1.93.09s1.29.07,1.94.09l2.49.11h0l1,0q6.09.27,12.23.47l4.12.14,1.14,0,2.42.08,3,.08q5.23.16,10.49.28,10,.22,20.12.35,10.41.12,20.92.12Z"/><path class="cls-3" d="M213.11,894.48h0q-10.52,0-20.92-.12-9.24-.11-18.38-.32L172,894q-6.78-.15-13.5-.36c-.94,0-1.88,0-2.81-.09l-.75,0-4.12-.14q-6.13-.21-12.23-.47l-1,0h0l-1.42-.06-1.07-.05c-.65,0-1.29,0-1.94-.09s-1.29-.05-1.93-.09l-3.57-.16-.88,0q-5.4-.27-10.77-.57-12.81-.69-25.47-1.6h-.16l-8.25-.61L73.8,889l-8.35-.7c-2.77-.24-5.54-.48-8.31-.74-2-.18-4-.36-6-.56q-3.24-.3-6.46-.63l-5.78-.58q-6.78-.69-13.5-1.45L19,883.58q-3.19-.36-6.37-.75l-6.29-.77L0,881.26V633q4.56,7.07,9.24,14.14c1.46,2.2,2.92,4.41,4.4,6.61q4.89,7.29,9.9,14.58c1.62,2.35,3.24,4.71,4.89,7.06q7.38,10.59,15,21.17,2.55,3.52,5.14,7.06,5.73,7.82,11.61,15.64c1.38,1.83,2.76,3.66,4.16,5.5q2.68,3.53,5.39,7t5.44,7q2.67,3.45,5.39,6.89l.59.75Q86.49,753.24,91.9,760q8.89,11,18.1,22c1.45,1.74,2.91,3.47,4.38,5.21q3.32,3.94,6.7,7.89,3,3.51,6,7t6.09,7l.11.13q4.56,5.21,9.18,10.4l3.09,3.47q2.9,3.25,5.83,6.49l.64.71q6.22,6.9,12.6,13.77,2.69,2.92,5.42,5.85l1,1.11,0,0,1.39,1.49,1.35,1.43q1.9,2,3.82,4.06l2.95,3.11,4,4.17.79.83q3.18,3.32,6.38,6.63l.44.46h0l.5.52.29.3.19.2,3.94,4,.26.26.58.59,3.47,3.55q3.88,4,7.85,7.93c1.25,1.27,2.52,2.55,3.79,3.82h0Z"/><path class="cls-4" d="M524.11,0C345.75,204.4,217.19,486.62,213.21,875.87q-.09,9.25-.09,18.58v0h0c-1.27-1.27-2.54-2.55-3.79-3.82-1.93-1.94-3.84-3.87-5.75-5.81-.7-.71-1.41-1.41-2.1-2.12L198,879.16l-.58-.59-.26-.26q-1.95-2-3.86-4l-.08-.07-.19-.2-.29-.3-.51-.52-.44-.46q-3.21-3.31-6.38-6.63l-.79-.83-4-4.17L177.68,858q-1.92-2-3.82-4.06c-.91-1-1.83-1.94-2.74-2.92l0,0q-3.24-3.48-6.46-7-6.36-6.89-12.6-13.77l-.64-.71-5.83-6.49-3.09-3.47q-4.62-5.19-9.18-10.4l-.11-.13q-3.06-3.5-6.09-7t-6-7q-3.37-3.95-6.7-7.89c-1.47-1.74-2.93-3.47-4.38-5.21q-9.21-11-18.1-22-5.41-6.72-10.72-13.44l-.59-.75q-2.72-3.43-5.39-6.89t-5.44-7q-2.72-3.51-5.39-7l-4.16-5.5q-5.88-7.81-11.61-15.64-2.58-3.52-5.14-7.06-7.65-10.58-15-21.17c-1.64-2.35-3.27-4.71-4.89-7.06q-5-7.29-9.9-14.58c-1.48-2.2-2.94-4.41-4.4-6.61Q4.56,640.12,0,633V0Z"/><path class="cls-5" d="M1920,0V691.28c-207.49-111.68-502.15-225-827-210.64q-6.88.3-13.79.69A1221.19,1221.19,0,0,0,948.6,495.58q-9.17,1.5-18.34,3.16-49.8,9-100.18,22.51-4.76,1.26-9.52,2.61-13.15,3.64-26.32,7.66-5.09,1.54-10.18,3.14-52.68,16.51-105.7,38.61-7.41,3.09-14.81,6.3-11.12,4.83-22.24,9.91-7.41,3.38-14.82,6.88h0q-7.41,3.5-14.83,7.12h0q-7.41,3.62-14.82,7.36l-.14.07q-11.07,5.58-22.13,11.44-7.8,4.14-15.6,8.4-6.62,3.6-13.22,7.33l-1.86,1q-6.36,3.57-12.72,7.26l-2.38,1.39q-6.81,3.93-13.6,8-44.52,26.57-88.94,57.83-7.39,5.21-14.78,10.55-4.15,3-8.31,6.07-6.42,4.71-12.84,9.54-15.3,11.48-30.57,23.56-11.06,8.75-22.08,17.8Q322.92,793.27,308.2,806q-11,9.48-22,19.3-7.35,6.56-14.68,13.27T256.92,852Q235,872.58,213.15,894.46l0,0h0v0q0-9.33.09-18.58C217.19,486.62,345.75,204.4,524.11,0Z"/><path class="cls-6" d="M1920,691.28V1080H934.28C747.45,967.31,511.35,894.49,213.14,894.49h0l0,0Q235,872.58,256.92,852q7.31-6.82,14.61-13.52t14.68-13.27q11-9.81,22-19.3,14.71-12.69,29.45-24.79,11-9,22.08-17.8Q375,751.28,390.3,739.8q6.42-4.83,12.84-9.54,4.16-3.06,8.31-6.07,7.38-5.33,14.78-10.55,44.4-31.3,88.94-57.83,6.8-4.06,13.6-8l2.38-1.39q6.36-3.67,12.72-7.26l1.86-1q6.62-3.72,13.22-7.33,7.8-4.28,15.6-8.4l5.53-2.91q5.53-2.9,11.07-5.72l5.53-2.81.14-.07q7.41-3.74,14.82-7.36h0q7.41-3.62,14.83-7.12h0q7.41-3.5,14.82-6.88,11.12-5.09,22.24-9.91,7.41-3.21,14.81-6.3,53-22.17,105.7-38.61,5.09-1.59,10.18-3.14,13.17-4,26.32-7.66,4.76-1.35,9.52-2.61,50.34-13.62,100.18-22.51,9.18-1.67,18.34-3.16a1221.19,1221.19,0,0,1,130.61-14.25q6.91-.39,13.79-.69C1417.85,466.24,1712.51,579.6,1920,691.28Z"/><path class="cls-7" d="M934.28,1080H373.6c-43.08-58.36-92.55-116.46-149.08-174q-5.66-5.75-11.4-11.5h0C511.35,894.49,747.45,967.31,934.28,1080Z"/><path class="cls-8" d="M373.6,1080H203.15q.58-5.22,1.12-10.47c.06-.55.12-1.09.17-1.63q.41-3.84.77-7.71c.17-1.63.32-3.25.48-4.88q.85-9,1.61-18.06c.15-1.79.3-3.58.43-5.37s.29-3.5.41-5.26c.12-1.4.23-2.79.32-4.19.26-3.32.49-6.65.72-10s.44-6.59.64-9.89c.1-1.59.2-3.19.28-4.78s.19-3.09.27-4.64q.21-3.32.37-6.64.49-9.32.88-18.73.27-6.71.5-13.45c.14-3.93.25-7.87.36-11.83q.08-3,.15-5.94.13-5.53.22-11.11.06-3.07.1-6.16t.07-6.17q0-3.69.06-7.39c0-.63,0-1.26,0-1.89q0-4.65,0-9.33,5.74,5.75,11.4,11.5C281.05,963.54,330.52,1021.64,373.6,1080Z"/></svg>