<svg xmlns="http://www.w3.org/2000/svg" viewBox="0 0 341.25 124.57"><defs><style>.cls-1{fill:#2335d8;}.cls-2{fill:#214adb;}.cls-3{fill:#1f5add;}.cls-4{fill:#1e64e0;}.cls-5{fill:#1b76e2;}.cls-6{fill:#1a89e5;}.cls-7{fill:#1899e8;}.cls-8{fill:#15ade9;}</style></defs><title>dashPic</title><g id="Layer_2" data-name="Layer 2"><g id="Layer_1-2" data-name="Layer 1"><path class="cls-1" d="M12.31,67.67c0,2.09-.07,4.13-.2,6.1,0,.64-.09,1.27-.17,1.9-.11,1.35-.26,2.67-.47,4-.08.61-.16,1.22-.28,1.81,0,.36-.11.7-.18,1-.12.64-.24,1.26-.39,1.89a6.44,6.44,0,0,1-.15.71c-.08.47-.2.93-.32,1.39s-.28,1.16-.45,1.74c0,.13-.06.27-.1.39-.18.66-.37,1.32-.58,2a10,10,0,0,1-.31,1c-.16.53-.34,1.07-.55,1.6a4.93,4.93,0,0,1-.27.73c-.16.47-.34,1-.55,1.41s-.37,1-.59,1.44a5.11,5.11,0,0,1-.24.55c-.19.47-.41.95-.63,1.4s-.54,1.13-.84,1.68a.22.22,0,0,1,0,.12c-.33.65-.67,1.31-1,1.93a2.74,2.74,0,0,1-.19.34c-.24.43-.48.85-.73,1.25s-.44.77-.68,1.14c-.76,1.2-1.54,2.36-2.36,3.49V77.82A80.55,80.55,0,0,0,12.31,67.67Z"/><path class="cls-2" d="M12.31,67.67A80.55,80.55,0,0,1,0,77.82v-11A82.44,82.44,0,0,0,12.31,67.67Z"/><path class="cls-3" d="M12.31,67.67A82.44,82.44,0,0,1,0,66.78V52A78.19,78.19,0,0,0,12.31,67.67Z"/><path class="cls-4" d="M58.86,1.59a80.69,80.69,0,0,0-26.32,16.1A61.45,61.45,0,0,0,22.08,30.46C16.16,40,12.31,52.21,12.31,67.67A78.19,78.19,0,0,1,0,52V24.75L0,1.48V0H42c2.51,0,5,.09,7.36.27A71.54,71.54,0,0,1,58.86,1.59Z"/><path class="cls-5" d="M22.08,58.19h1.48a82.79,82.79,0,0,0-11.25,9.48c0-15.46,3.85-27.63,9.77-37.21Z"/><path class="cls-5" d="M87.83,37a47.53,47.53,0,0,1-.72,8.4,36.19,36.19,0,0,1-1.62,6,78.09,78.09,0,0,0-21.38-4.6A22.87,22.87,0,0,0,66.05,37c0-7.86-2.79-12.89-8.14-15.85-3.5-1.93-8.09-2.95-13.71-3.29-1.44-.09-2.94-.13-4.51-.13H32.54A80.69,80.69,0,0,1,58.86,1.59C65.61,3,71.53,5.49,76.22,9.26h0A28.69,28.69,0,0,1,85.59,22.6,42.37,42.37,0,0,1,87.83,37Z"/><path class="cls-6" d="M92.7,124.57H81.63c-5.7-21.2-22.28-56.9-69.32-56.9a82.79,82.79,0,0,1,11.25-9.48H41.37c1.66,0,3.24-.17,4.76-.36a33,33,0,0,0,4.73-.92c6-1.56,10.28-4.62,12.76-9.16.18-.32.34-.66.49-1a78.09,78.09,0,0,1,21.38,4.6,32.8,32.8,0,0,1-3.66,7.27A33.88,33.88,0,0,1,70.07,69.27a41.81,41.81,0,0,1-6.92,3.13l-.24.09-.08,0L81,104.17Z"/><path class="cls-7" d="M81.63,124.57H67.88l-9.62-17.46L56,102.92,46.1,85l-5-9.12h-19v3.5l-1-1.47a81.72,81.72,0,0,0-8.74-10.24C59.35,67.67,75.93,103.37,81.63,124.57Z"/><path class="cls-8" d="M21.05,77.91l1,1.47v45.18H0v-16c.82-1.13,1.6-2.29,2.36-3.49.24-.37.47-.76.68-1.14s.51-.82.73-1.25a2.74,2.74,0,0,0,.19-.34c.36-.62.71-1.28,1-1.93a.22.22,0,0,0,0-.12c.3-.55.57-1.11.84-1.68s.44-.93.63-1.4a5.11,5.11,0,0,0,.24-.55c.22-.48.42-.95.59-1.44s.39-.94.55-1.41a4.93,4.93,0,0,0,.27-.73c.19-.52.39-1,.55-1.6a10,10,0,0,0,.31-1c.21-.63.4-1.29.58-2,0-.12.07-.26.1-.39.17-.56.31-1.14.45-1.74s.24-.92.32-1.39a6.44,6.44,0,0,0,.15-.71c.15-.63.27-1.25.39-1.89.07-.34.13-.68.18-1,.12-.59.2-1.2.28-1.81.21-1.3.36-2.62.47-4,.08-.63.12-1.26.17-1.9.13-2,.2-4,.2-6.1A81.72,81.72,0,0,1,21.05,77.91Z"/><path class="cls-5" d="M232,49.51c0,.22,0,.46,0,.7a7.07,7.07,0,0,1-2,5q-6.9-3.31-14.12-6.26a7,7,0,0,1,4-5.28,9.2,9.2,0,0,1,4-.85C228.31,42.8,231.65,45.47,232,49.51Z"/><path class="cls-5" d="M268.38,66.27a31,31,0,0,1,14.84,6.44l-5.24,7-.77,1c-3.58-2.62-7.2-4.52-11.17-4.81q-5.88-4-12.12-7.78A22.94,22.94,0,0,1,260,66.38a29.65,29.65,0,0,1,4.64-.35A30.1,30.1,0,0,1,268.38,66.27Z"/><path class="cls-5" d="M341.25,92.53c0-10.18-3.41-18.36-9.95-22.82A22.94,22.94,0,0,0,318.21,66a22.53,22.53,0,0,0-3.76.31c-10.93,1.76-20.64,11.23-21.86,25.85-.09,1-.14,2.07-.14,3.15,0,.18,0,.36,0,.54a360.49,360.49,0,0,1,30.35,28.55l.87-.1a28.09,28.09,0,0,0,3.79-.68,36.06,36.06,0,0,0,11.64-5.1l-4.47-8.16a23.73,23.73,0,0,1-13,4.06,17.57,17.57,0,0,1-6.54-1.18,13.83,13.83,0,0,1-2.35-1.15,14,14,0,0,1-3.8-3.37,16.65,16.65,0,0,1-1.42-2.09,20.45,20.45,0,0,1-2.35-7.75h35.47A36.53,36.53,0,0,0,341.25,92.53ZM305.09,90c1.16-9,6.86-13.81,13.37-13.81,7.62,0,11.46,5.22,11.46,13.81Z"/><path class="cls-6" d="M148.5,92.53a39.74,39.74,0,0,0-.61-7.12C145.74,73.72,138.13,66,125.44,66a21.61,21.61,0,0,0-3.58.29,25.49,25.49,0,0,0-17.62,12,31,31,0,0,0-4.37,14c-.05.32-.06.65-.08,1a20.45,20.45,0,0,0-.07,2.08,33.54,33.54,0,0,0,2.9,14.16c.18.41.39.82.6,1.21q7.74,6,14.61,12.39a29.74,29.74,0,0,0,9.39,1.47,31.28,31.28,0,0,0,7-.79,35.68,35.68,0,0,0,12.15-5.23l-4.47-8.16A23.64,23.64,0,0,1,129,114.45a20.78,20.78,0,0,1-3.59-.3,15,15,0,0,1-8.43-4.61,16.72,16.72,0,0,1-3.67-6.71,21.25,21.25,0,0,1-.66-3.12c0-.25,0-.53-.09-.8h35.43A34.67,34.67,0,0,0,148.5,92.53ZM112.36,90a18.32,18.32,0,0,1,2.38-7.32,12.63,12.63,0,0,1,11-6.49c7.62,0,11.45,5.22,11.45,13.81Z"/><path class="cls-6" d="M195,67.38h12.64l-6.46,19.05L196.89,99,194,107.66l-2,5.78-2.76,8.19-.55,1.59H173.53l-.73-2.09-.12-.36-2.76-7.91-2.82-8.12-2.11-6-1.93-5.55-.6-1.68-8.38-24.11h13.28l6.52,21.39,1.71,5.58.63,2c.23.89.5,1.76.75,2.66,1.29,4.53,2.59,9.18,3.86,13.74,0,.14.09.27.12.41h.44a1.44,1.44,0,0,0,.09-.24c1-3.44,1.94-7,2.91-10.43.6-2.07,1.17-4.12,1.75-6.14l2-6.46Z"/><path class="cls-6" d="M215.84,50.21a7.62,7.62,0,0,1,.11-1.28q7.22,2.94,14.12,6.26A8.38,8.38,0,0,1,224,57.61C219.29,57.61,215.84,54.53,215.84,50.21Z"/><rect class="cls-6" x="217.34" y="67.38" width="13.11" height="55.84"/><path class="cls-6" d="M284.38,107.26c0,9.59-7.58,17.31-21.67,17.31a34.84,34.84,0,0,1-21.16-7.77l6.09-8.3c5,3.85,9.78,6.21,15.41,6.21,6.1,0,9-2.86,9-6.68,0-4.67-6-6.77-12-9-7-2.66-15-6.64-15.65-15.22,0-.34-.05-.7-.05-1.06a15.27,15.27,0,0,1,6-12.37,17.75,17.75,0,0,1,3.62-2.18Q260.16,72,266,75.94c-.36,0-.71,0-1.07,0-5.6,0-8.25,2.68-8.25,6.17a5,5,0,0,0,2.22,4.08c2.18,1.73,5.72,2.87,9.44,4.24C276,93.22,284.38,96.85,284.38,107.26Z"/><path class="cls-6" d="M322.81,124.43c-.94.09-1.89.14-2.85.14-14.44,0-26-9.5-27.37-25.87,0-.92-.12-1.86-.13-2.82A360.49,360.49,0,0,1,322.81,124.43Z"/><path class="cls-7" d="M117.83,123.1a25.14,25.14,0,0,1-14.61-12.39Q111,116.68,117.83,123.1Z"/></g></g></svg>