<svg xmlns="http://www.w3.org/2000/svg" viewBox="0 0 63.26 85.01"><defs><style>.cls-1{fill:#2335d8;}.cls-2{fill:#214adb;}.cls-3{fill:#1f5add;}.cls-4{fill:#1e64e0;}.cls-5{fill:#1b76e2;}.cls-6{fill:#1a89e5;}.cls-7{fill:#1899e8;}.cls-8{fill:#15ade9;}</style></defs><title>dashboardIcon</title><g id="Layer_2" data-name="Layer 2"><g id="Layer_1-2" data-name="Layer 1"><path class="cls-1" d="M8.4,46.18c0,1.43-.05,2.81-.14,4.16,0,.44-.06.87-.11,1.3-.08.92-.18,1.82-.32,2.71,0,.42-.11.83-.2,1.24,0,.24-.07.47-.12.7-.08.44-.16.87-.26,1.29a4.74,4.74,0,0,1-.1.49c-.06.32-.14.63-.22,1s-.2.79-.31,1.18a2.68,2.68,0,0,1-.07.27c-.12.45-.25.9-.39,1.33a6.38,6.38,0,0,1-.22.66c-.11.36-.23.73-.37,1.09a3.68,3.68,0,0,1-.18.5c-.11.32-.24.65-.38,1a10.58,10.58,0,0,1-.4,1,1.84,1.84,0,0,1-.17.38c-.13.32-.28.65-.43,1s-.37.77-.57,1.14a.13.13,0,0,1,0,.09c-.22.44-.45.89-.7,1.31a1.71,1.71,0,0,1-.13.23c-.16.3-.32.58-.49.86s-.31.52-.47.77c-.52.83-1,1.61-1.61,2.38v-21A55.63,55.63,0,0,0,8.4,46.18Z"/><path class="cls-2" d="M8.4,46.18A55.63,55.63,0,0,1,0,53.11V45.57A55.62,55.62,0,0,0,8.4,46.18Z"/><path class="cls-3" d="M8.4,46.18A55.62,55.62,0,0,1,0,45.57V35.48A53.57,53.57,0,0,0,8.4,46.18Z"/><path class="cls-4" d="M40.17,1.08a55.06,55.06,0,0,0-18,11,42.15,42.15,0,0,0-7.13,8.72C11,27.33,8.4,35.63,8.4,46.18A53.57,53.57,0,0,1,0,35.48V0H28.66c1.71,0,3.4.06,5,.18A50.09,50.09,0,0,1,40.17,1.08Z"/><path class="cls-5" d="M15.07,39.71h1A56.13,56.13,0,0,0,8.4,46.18c0-10.55,2.63-18.85,6.67-25.39Z"/><path class="cls-5" d="M59.94,25.22a31.42,31.42,0,0,1-.5,5.73A23.47,23.47,0,0,1,58.34,35a53.67,53.67,0,0,0-14.59-3.14,15.59,15.59,0,0,0,1.33-6.67c0-5.37-1.91-8.8-5.56-10.81a22.17,22.17,0,0,0-9.36-2.25c-1-.06-2-.09-3.08-.09H22.2a55.06,55.06,0,0,1,18-11A28.12,28.12,0,0,1,52,6.32h0a19.6,19.6,0,0,1,6.39,9.1A29,29,0,0,1,59.94,25.22Z"/><path class="cls-6" d="M63.26,85H55.71C51.82,70.54,40.5,46.18,8.4,46.18a56.13,56.13,0,0,1,7.68-6.47H28.23c1.13,0,2.22-.11,3.25-.24a22,22,0,0,0,3.23-.63c4.08-1.06,7-3.15,8.71-6.25a7.32,7.32,0,0,0,.33-.69A53.67,53.67,0,0,1,58.34,35a22.39,22.39,0,0,1-2.5,5,23.11,23.11,0,0,1-8,7.28,29,29,0,0,1-4.73,2.14l-.16.06,0,0,12.39,21.6Z"/><path class="cls-7" d="M55.71,85H46.32L39.76,73.09l-1.57-2.85L31.46,58,28,51.78h-13v2.39l-.7-1a56.54,56.54,0,0,0-6-7C40.5,46.18,51.82,70.54,55.71,85Z"/><path class="cls-8" d="M14.37,53.17l.7,1V85H0V74.11c.56-.77,1.09-1.55,1.61-2.38.16-.25.32-.51.47-.77s.34-.56.49-.86a1.71,1.71,0,0,0,.13-.23c.25-.42.49-.87.7-1.31a.13.13,0,0,0,0-.09q.3-.56.57-1.14c.15-.31.3-.64.43-1A1.84,1.84,0,0,0,4.61,66,10.58,10.58,0,0,0,5,65c.14-.31.27-.64.38-1a3.68,3.68,0,0,0,.18-.5c.13-.35.26-.71.37-1.09a6.38,6.38,0,0,0,.22-.66c.14-.43.27-.88.39-1.33a2.68,2.68,0,0,0,.07-.27c.11-.38.21-.78.31-1.18s.16-.63.22-1a4.74,4.74,0,0,0,.1-.49c.1-.42.18-.85.26-1.29,0-.23.09-.46.12-.7.09-.41.15-.82.2-1.24.14-.89.24-1.79.32-2.71,0-.43.08-.86.11-1.3.09-1.35.14-2.73.14-4.16A56.54,56.54,0,0,1,14.37,53.17Z"/></g></g></svg>