<svg xmlns="http://www.w3.org/2000/svg" viewBox="0 0 307.69 85.01"><defs><style>.cls-1{fill:#214adb;}.cls-2{fill:#2335d8;}.cls-3{fill:#1f5add;}.cls-4{fill:#1e64e0;}.cls-5{fill:#1b76e2;}.cls-6{fill:#1a89e5;}.cls-7{fill:#1899e8;}.cls-8{fill:#15ade9;}</style></defs><title>logo1</title><g id="Layer_2" data-name="Layer 2"><g id="Layer_1-2" data-name="Layer 1"><path class="cls-1" d="M8.4,46.18c0,1.43-.05,2.81-.14,4.16,0,.44-.06.87-.11,1.3-.08.92-.18,1.82-.32,2.71,0,.42-.11.83-.2,1.24,0,.24-.07.47-.12.7-.08.44-.16.87-.26,1.29a4.74,4.74,0,0,1-.1.49c-.06.32-.14.63-.22,1s-.2.79-.31,1.18a2.68,2.68,0,0,1-.07.27c-.12.45-.25.9-.39,1.33a6.38,6.38,0,0,1-.22.66c-.11.36-.23.73-.37,1.09a3.68,3.68,0,0,1-.18.5c-.11.32-.24.65-.38,1a10.58,10.58,0,0,1-.4,1,1.84,1.84,0,0,1-.17.38c-.13.32-.28.65-.43,1s-.37.77-.57,1.14a.13.13,0,0,1,0,.09c-.22.44-.45.89-.7,1.31a1.71,1.71,0,0,1-.13.23c-.16.3-.32.58-.49.86s-.31.52-.47.77c-.52.83-1,1.61-1.61,2.38v-21A55.63,55.63,0,0,0,8.4,46.18Z"/><path class="cls-1" d="M8.4,46.18A55.63,55.63,0,0,1,0,53.11V45.57A55.62,55.62,0,0,0,8.4,46.18Z"/><path class="cls-1" d="M8.4,46.18A55.62,55.62,0,0,1,0,45.57V35.48A53.57,53.57,0,0,0,8.4,46.18Z"/><path class="cls-1" d="M40.17,1.08a55.06,55.06,0,0,0-18,11,42.15,42.15,0,0,0-7.13,8.72C11,27.33,8.4,35.63,8.4,46.18A53.57,53.57,0,0,1,0,35.48V0H28.66c1.71,0,3.4.06,5,.18A50.09,50.09,0,0,1,40.17,1.08Z"/><path class="cls-1" d="M15.07,39.71h1A56.13,56.13,0,0,0,8.4,46.18c0-10.55,2.63-18.85,6.67-25.39Z"/><path class="cls-1" d="M59.94,25.22a31.42,31.42,0,0,1-.5,5.73A23.47,23.47,0,0,1,58.34,35a53.67,53.67,0,0,0-14.59-3.14,15.59,15.59,0,0,0,1.33-6.67c0-5.37-1.91-8.8-5.56-10.81a22.17,22.17,0,0,0-9.36-2.25c-1-.06-2-.09-3.08-.09H22.2a55.06,55.06,0,0,1,18-11A28.12,28.12,0,0,1,52,6.32h0a19.6,19.6,0,0,1,6.39,9.1A29,29,0,0,1,59.94,25.22Z"/><path class="cls-1" d="M63.26,85H55.71C51.82,70.54,40.5,46.18,8.4,46.18a56.13,56.13,0,0,1,7.68-6.47H28.23c1.13,0,2.22-.11,3.25-.24a22,22,0,0,0,3.23-.63c4.08-1.06,7-3.15,8.71-6.25a7.32,7.32,0,0,0,.33-.69A53.67,53.67,0,0,1,58.34,35a22.39,22.39,0,0,1-2.5,5,23.11,23.11,0,0,1-8,7.28,29,29,0,0,1-4.73,2.14l-.16.06,0,0,12.39,21.6Z"/><path class="cls-1" d="M55.71,85H46.32L39.76,73.09l-1.57-2.85L31.46,58,28,51.78h-13v2.39l-.7-1a56.54,56.54,0,0,0-6-7C40.5,46.18,51.82,70.54,55.71,85Z"/><path class="cls-1" d="M14.37,53.17l.7,1V85H0V74.11c.56-.77,1.09-1.55,1.61-2.38.16-.25.32-.51.47-.77s.34-.56.49-.86a1.71,1.71,0,0,0,.13-.23c.25-.42.49-.87.7-1.31a.13.13,0,0,0,0-.09q.3-.56.57-1.14c.15-.31.3-.64.43-1A1.84,1.84,0,0,0,4.61,66,10.58,10.58,0,0,0,5,65c.14-.31.27-.64.38-1a3.68,3.68,0,0,0,.18-.5c.13-.35.26-.71.37-1.09a6.38,6.38,0,0,0,.22-.66c.14-.43.27-.88.39-1.33a2.68,2.68,0,0,0,.07-.27c.11-.38.21-.78.31-1.18s.16-.63.22-1a4.74,4.74,0,0,0,.1-.49c.1-.42.18-.85.26-1.29,0-.23.09-.46.12-.7.09-.41.15-.82.2-1.24.14-.89.24-1.79.32-2.71,0-.43.08-.86.11-1.3.09-1.35.14-2.73.14-4.16A56.54,56.54,0,0,1,14.37,53.17Z"/><path class="cls-2" d="M8.4,46.18c0,1.43-.05,2.81-.14,4.16,0,.44-.06.87-.11,1.3-.08.92-.18,1.82-.32,2.71,0,.42-.11.83-.2,1.24,0,.24-.07.47-.12.7-.08.44-.16.87-.26,1.29a4.74,4.74,0,0,1-.1.49c-.06.32-.14.63-.22,1s-.2.79-.31,1.18a2.68,2.68,0,0,1-.07.27c-.12.45-.25.9-.39,1.33a6.38,6.38,0,0,1-.22.66c-.11.36-.23.73-.37,1.09a3.68,3.68,0,0,1-.18.5c-.11.32-.24.65-.38,1a10.58,10.58,0,0,1-.4,1,1.84,1.84,0,0,1-.17.38c-.13.32-.28.65-.43,1s-.37.77-.57,1.14a.13.13,0,0,1,0,.09c-.22.44-.45.89-.7,1.31a1.71,1.71,0,0,1-.13.23c-.16.3-.32.58-.49.86s-.31.52-.47.77c-.52.83-1,1.61-1.61,2.38v-21A55.63,55.63,0,0,0,8.4,46.18Z"/><path class="cls-1" d="M8.4,46.18A55.63,55.63,0,0,1,0,53.11V45.57A55.62,55.62,0,0,0,8.4,46.18Z"/><path class="cls-3" d="M8.4,46.18A55.62,55.62,0,0,1,0,45.57V35.48A53.57,53.57,0,0,0,8.4,46.18Z"/><path class="cls-4" d="M40.17,1.08a55.06,55.06,0,0,0-18,11,42.15,42.15,0,0,0-7.13,8.72C11,27.33,8.4,35.63,8.4,46.18A53.57,53.57,0,0,1,0,35.48V0H28.66c1.71,0,3.4.06,5,.18A50.09,50.09,0,0,1,40.17,1.08Z"/><path class="cls-5" d="M15.07,39.71h1A56.13,56.13,0,0,0,8.4,46.18c0-10.55,2.63-18.85,6.67-25.39Z"/><path class="cls-5" d="M59.94,25.22a31.42,31.42,0,0,1-.5,5.73A23.47,23.47,0,0,1,58.34,35a53.67,53.67,0,0,0-14.59-3.14,15.59,15.59,0,0,0,1.33-6.67c0-5.37-1.91-8.8-5.56-10.81a22.17,22.17,0,0,0-9.36-2.25c-1-.06-2-.09-3.08-.09H22.2a55.06,55.06,0,0,1,18-11A28.12,28.12,0,0,1,52,6.32h0a19.6,19.6,0,0,1,6.39,9.1A29,29,0,0,1,59.94,25.22Z"/><path class="cls-6" d="M63.26,85H55.71C51.82,70.54,40.5,46.18,8.4,46.18a56.13,56.13,0,0,1,7.68-6.47H28.23c1.13,0,2.22-.11,3.25-.24a22,22,0,0,0,3.23-.63c4.08-1.06,7-3.15,8.71-6.25a7.32,7.32,0,0,0,.33-.69A53.67,53.67,0,0,1,58.34,35a22.39,22.39,0,0,1-2.5,5,23.11,23.11,0,0,1-8,7.28,29,29,0,0,1-4.73,2.14l-.16.06,0,0,12.39,21.6Z"/><path class="cls-7" d="M55.71,85H46.32L39.76,73.09l-1.57-2.85L31.46,58,28,51.78h-13v2.39l-.7-1a56.54,56.54,0,0,0-6-7C40.5,46.18,51.82,70.54,55.71,85Z"/><path class="cls-8" d="M14.37,53.17l.7,1V85H0V74.11c.56-.77,1.09-1.55,1.61-2.38.16-.25.32-.51.47-.77s.34-.56.49-.86a1.71,1.71,0,0,0,.13-.23c.25-.42.49-.87.7-1.31a.13.13,0,0,0,0-.09q.3-.56.57-1.14c.15-.31.3-.64.43-1A1.84,1.84,0,0,0,4.61,66,10.58,10.58,0,0,0,5,65c.14-.31.27-.64.38-1a3.68,3.68,0,0,0,.18-.5c.13-.35.26-.71.37-1.09a6.38,6.38,0,0,0,.22-.66c.14-.43.27-.88.39-1.33a2.68,2.68,0,0,0,.07-.27c.11-.38.21-.78.31-1.18s.16-.63.22-1a4.74,4.74,0,0,0,.1-.49c.1-.42.18-.85.26-1.29,0-.23.09-.46.12-.7.09-.41.15-.82.2-1.24.14-.89.24-1.79.32-2.71,0-.43.08-.86.11-1.3.09-1.35.14-2.73.14-4.16A56.54,56.54,0,0,1,14.37,53.17Z"/><path class="cls-5" d="M198.44,10c0,.22,0,.46,0,.7a7.07,7.07,0,0,1-2,5c-4.59-2.21-9.3-4.31-14.12-6.26a7,7,0,0,1,4-5.28,9.23,9.23,0,0,1,4-.85C194.75,3.24,198.1,5.9,198.44,10Z"/><path class="cls-5" d="M234.82,26.71a31.08,31.08,0,0,1,14.85,6.44l-5.24,7-.77,1c-3.59-2.62-7.21-4.52-11.18-4.81q-5.86-4-12.12-7.79a23.43,23.43,0,0,1,6.09-1.77,29.74,29.74,0,0,1,4.64-.35A30.1,30.1,0,0,1,234.82,26.71Z"/><path class="cls-5" d="M307.69,53c0-10.19-3.4-18.36-9.95-22.82a22.94,22.94,0,0,0-13.09-3.68,22.41,22.41,0,0,0-3.75.31C270,28.54,260.25,38,259,52.63c-.09,1-.13,2.07-.13,3.15v.54a360.49,360.49,0,0,1,30.35,28.55l.88-.1a26.49,26.49,0,0,0,3.78-.69A35.54,35.54,0,0,0,305.55,79l-4.46-8.15a23.79,23.79,0,0,1-13,4.06,17.52,17.52,0,0,1-6.53-1.18,13.48,13.48,0,0,1-2.35-1.15,13.71,13.71,0,0,1-3.8-3.37A14.75,14.75,0,0,1,274,67.1a20.27,20.27,0,0,1-2.35-7.76h35.46A36.4,36.4,0,0,0,307.69,53Zm-36.16-2.55c1.17-9,6.87-13.81,13.38-13.81,7.61,0,11.45,5.22,11.45,13.81Z"/><path class="cls-6" d="M115,53a39.64,39.64,0,0,0-.62-7.12c-2.14-11.69-9.76-19.38-22.45-19.38a21.78,21.78,0,0,0-3.58.29,25.45,25.45,0,0,0-17.61,12,30.78,30.78,0,0,0-4.37,14c0,.32-.07.65-.09,1a20.45,20.45,0,0,0-.07,2.08,33.54,33.54,0,0,0,2.9,14.16c.19.41.39.82.61,1.21q7.72,6,14.6,12.39A29.74,29.74,0,0,0,93.66,85a31.14,31.14,0,0,0,7-.79A35.55,35.55,0,0,0,112.81,79l-4.47-8.15a23.68,23.68,0,0,1-13,4.06,19.9,19.9,0,0,1-3.59-.31A15,15,0,0,1,83.37,70a16.67,16.67,0,0,1-3.66-6.72A20.83,20.83,0,0,1,79,60.15c0-.26-.05-.53-.08-.81h35.42A34.4,34.4,0,0,0,115,53ZM78.8,50.42a18.43,18.43,0,0,1,2.38-7.32,12.65,12.65,0,0,1,11-6.49c7.62,0,11.46,5.22,11.46,13.81Z"/><path class="cls-6" d="M161.43,27.82h12.64l-6.45,19-4.28,12.6-2.93,8.63-2,5.79-2.76,8.19-.55,1.59H140l-.74-2.09-.12-.36-2.75-7.91-2.83-8.12-2.1-6-1.94-5.55-.6-1.68-8.37-24.11H133.8l6.52,21.39L142,54.79l.63,2c.22.89.49,1.77.75,2.67,1.28,4.53,2.58,9.18,3.86,13.73,0,.14.08.28.11.41h.45a1,1,0,0,0,.08-.23c1-3.44,1.94-7,2.91-10.43.6-2.07,1.17-4.12,1.75-6.15l2-6.45Z"/><path class="cls-6" d="M182.29,10.65a7.63,7.63,0,0,1,.1-1.28c4.82,2,9.53,4.05,14.12,6.26A8.38,8.38,0,0,1,190.39,18C185.73,18,182.29,15,182.29,10.65Z"/><rect class="cls-6" x="183.78" y="27.82" width="13.11" height="55.84"/><path class="cls-6" d="M250.83,67.7c0,9.59-7.58,17.31-21.68,17.31A34.86,34.86,0,0,1,208,77.24l6.1-8.31c5,3.85,9.77,6.22,15.4,6.22,6.1,0,9-2.86,9-6.68,0-4.67-6-6.78-12-9-7-2.66-15-6.65-15.65-15.22,0-.34-.05-.7-.05-1.06a15.27,15.27,0,0,1,6-12.37,18.84,18.84,0,0,1,3.62-2.19q6.24,3.8,12.12,7.79c-.35,0-.71,0-1.07,0-5.59,0-8.25,2.68-8.25,6.17a5,5,0,0,0,2.23,4.08c2.17,1.73,5.72,2.87,9.43,4.24C242.39,53.66,250.83,57.29,250.83,67.7Z"/><path class="cls-6" d="M289.25,84.87c-.94.09-1.89.14-2.84.14-14.45,0-26-9.5-27.38-25.87,0-.92-.11-1.86-.13-2.82A360.49,360.49,0,0,1,289.25,84.87Z"/><path class="cls-7" d="M84.27,83.54a25.15,25.15,0,0,1-14.6-12.39Q77.39,77.12,84.27,83.54Z"/></g></g></svg>