<svg xmlns="http://www.w3.org/2000/svg" viewBox="0 0 86.56 116.32"><defs><style>.cls-1{fill:#2335d8;}.cls-2{fill:#214adb;}.cls-3{fill:#1f5add;}.cls-4{fill:#1e64e0;}.cls-5{fill:#1b76e2;}.cls-6{fill:#1a89e5;}.cls-7{fill:#1899e8;}.cls-8{fill:#15ade9;}</style></defs><title>Asset 1</title><g id="Layer_2" data-name="Layer 2"><g id="Layer_1-2" data-name="Layer 1"><path class="cls-1" d="M11.5,63.19c0,2-.07,3.85-.2,5.69,0,.6-.08,1.19-.15,1.77-.11,1.26-.25,2.5-.44,3.72-.07.56-.15,1.13-.26,1.69,0,.33-.1.65-.17,1-.11.59-.22,1.17-.36,1.76a5.18,5.18,0,0,1-.14.66c-.08.44-.19.87-.3,1.3s-.27,1.08-.42,1.62a3.1,3.1,0,0,1-.1.36q-.24.94-.54,1.83a8.6,8.6,0,0,1-.29.9q-.23.75-.51,1.5a5,5,0,0,1-.25.68c-.15.44-.32.89-.51,1.31s-.35.91-.56,1.35a4.36,4.36,0,0,1-.22.51c-.18.44-.39.89-.59,1.32s-.5,1.05-.78,1.56a.15.15,0,0,1-.06.11c-.3.61-.62,1.22-1,1.8a1.92,1.92,0,0,1-.18.32c-.22.4-.44.79-.68,1.17s-.42.72-.64,1.06c-.7,1.13-1.44,2.21-2.2,3.26V72.66A74.56,74.56,0,0,0,11.5,63.19Z"/><path class="cls-2" d="M11.5,63.19A74.56,74.56,0,0,1,0,72.66V62.36A77.22,77.22,0,0,0,11.5,63.19Z"/><path class="cls-3" d="M11.5,63.19A77.22,77.22,0,0,1,0,62.36V48.54A73.27,73.27,0,0,0,11.5,63.19Z"/><path class="cls-4" d="M55,1.48a75.53,75.53,0,0,0-24.58,15,58.56,58.56,0,0,0-9.77,11.93c-5.52,9-9.11,20.31-9.11,34.75A73.27,73.27,0,0,1,0,48.54V23.11L0,1.39V0H39.22c2.34,0,4.64.08,6.87.25A67.48,67.48,0,0,1,55,1.48Z"/><path class="cls-5" d="M20.61,54.33H22a77,77,0,0,0-10.5,8.86c0-14.44,3.59-25.8,9.11-34.75Z"/><path class="cls-5" d="M82,34.51a44.21,44.21,0,0,1-.67,7.84,34.31,34.31,0,0,1-1.51,5.58,73.35,73.35,0,0,0-20-4.29,21.28,21.28,0,0,0,1.82-9.13c0-7.34-2.61-12-7.61-14.8-3.27-1.8-7.55-2.75-12.8-3.07-1.34-.08-2.74-.13-4.21-.13H30.38A75.53,75.53,0,0,1,55,1.48,38.51,38.51,0,0,1,71.17,8.64h0A26.86,26.86,0,0,1,79.92,21.1,39.67,39.67,0,0,1,82,34.51Z"/><path class="cls-6" d="M86.56,116.32H76.22C70.9,96.52,55.41,63.19,11.5,63.19A77,77,0,0,1,22,54.33H38.62A44,44,0,0,0,43.07,54a30.1,30.1,0,0,0,4.42-.86c5.58-1.46,9.6-4.31,11.91-8.55a10.22,10.22,0,0,0,.46-.94,73.35,73.35,0,0,1,20,4.29,30.24,30.24,0,0,1-3.43,6.79,31.47,31.47,0,0,1-11,10A39.62,39.62,0,0,1,59,67.61l-.22.08-.07,0,17,29.55Z"/><path class="cls-7" d="M76.22,116.32H63.38L54.4,100,52.26,96.1,43,79.37l-4.68-8.52H20.61v3.27c-.31-.46-.63-.92-.95-1.37a77.48,77.48,0,0,0-8.16-9.56C55.41,63.19,70.9,96.52,76.22,116.32Z"/><path class="cls-8" d="M19.66,72.75c.32.45.64.91.95,1.37V116.3H0V101.41c.76-1,1.5-2.13,2.2-3.26.22-.34.45-.7.64-1.06s.47-.77.68-1.17a1.92,1.92,0,0,0,.18-.32c.33-.58.66-1.19,1-1.8a.15.15,0,0,0,.06-.11c.28-.51.53-1,.78-1.56s.41-.88.59-1.32a4.36,4.36,0,0,0,.22-.51c.21-.44.39-.89.56-1.35s.36-.87.51-1.31A5,5,0,0,0,7.62,87c.18-.49.36-1,.51-1.5a8.6,8.6,0,0,0,.29-.9q.3-.89.54-1.83a3.1,3.1,0,0,0,.1-.36q.22-.78.42-1.62c.11-.43.22-.86.3-1.3a5.18,5.18,0,0,0,.14-.66c.14-.59.25-1.17.36-1.76.07-.32.12-.64.17-1,.11-.56.19-1.13.26-1.69.19-1.22.33-2.46.44-3.72.07-.58.11-1.17.15-1.77.13-1.84.2-3.74.2-5.69A77.48,77.48,0,0,1,19.66,72.75Z"/></g></g></svg>